<svg width="64" height="64" viewBox="0 0 64 64" fill="none" xmlns="http://www.w3.org/2000/svg">
    <g clip-path="url(#clip0_9927_167445)">
        <path d="M29.3307 45.3333H10.6641C12.1172 44.5104 13.3569 43.3578 14.2832 41.9683C15.2096 40.5788 15.7967 38.9912 15.9974 37.3333V29.3333C16.1562 25.9495 17.2329 22.6727 19.1119 19.8541C20.991 17.0355 23.6016 14.7814 26.6641 13.3333C26.6641 11.9188 27.226 10.5623 28.2262 9.5621C29.2264 8.5619 30.5829 8 31.9974 8C33.4119 8 34.7684 8.5619 35.7686 9.5621C36.7688 10.5623 37.3307 11.9188 37.3307 13.3333C40.3932 14.7814 43.0038 17.0355 44.8829 19.8541C46.7619 22.6727 47.8386 25.9495 47.9974 29.3333" stroke="currentColor" stroke-linecap="round" stroke-linejoin="round"/>
        <path d="M24 45.3359V48.0026C23.9996 49.9792 24.731 51.8859 26.0531 53.3552C27.3751 54.8245 29.1944 55.7524 31.16 55.9599" stroke="currentColor" stroke-linecap="round" stroke-linejoin="round"/>
        <path d="M40 48C40 50.1217 40.8429 52.1566 42.3431 53.6569C43.8434 55.1571 45.8783 56 48 56C50.1217 56 52.1566 55.1571 53.6569 53.6569C55.1571 52.1566 56 50.1217 56 48C56 45.8783 55.1571 43.8434 53.6569 42.3431C52.1566 40.8429 50.1217 40 48 40C45.8783 40 43.8434 40.8429 42.3431 42.3431C40.8429 43.8434 40 45.8783 40 48Z" stroke="currentColor" stroke-linecap="round" stroke-linejoin="round"/>
        <path d="M53.8672 53.8672L58.6672 58.6672" stroke="currentColor" stroke-linecap="round" stroke-linejoin="round"/>
    </g>
    <defs>
        <clipPath id="clip0_9927_167445">
            <rect width="64" height="64" fill="white"/>
        </clipPath>
    </defs>
</svg>
