<svg width="32" height="32" viewBox="0 0 32 32" fill="none" xmlns="http://www.w3.org/2000/svg">
    <path d="M21.3333 2.67188C21.6599 2.67192 21.9751 2.79182 22.2192 3.00883C22.4632 3.22584 22.6191 3.52487 22.6573 3.84921L22.6667 4.00521V5.33854H24C25.0203 5.33848 26.002 5.72831 26.7443 6.42825C27.4867 7.1282 27.9335 8.08535 27.9933 9.10387L28 9.33854V25.3385C28.0001 26.3588 27.6102 27.3406 26.9103 28.0829C26.2103 28.8252 25.2532 29.272 24.2347 29.3319L24 29.3385H8C6.97972 29.3386 5.99798 28.9488 5.25565 28.2488C4.51332 27.5489 4.06652 26.5917 4.00667 25.5732L4 25.3385V9.33854C3.99994 8.31826 4.38977 7.33652 5.08971 6.59419C5.78966 5.85187 6.74681 5.40506 7.76533 5.34521L8 5.33854H9.33333V4.00521C9.33371 3.66537 9.46384 3.3385 9.69713 3.09138C9.93042 2.84427 10.2493 2.69556 10.5885 2.67565C10.9278 2.65573 11.2618 2.76611 11.5224 2.98423C11.783 3.20235 11.9505 3.51175 11.9907 3.84921L12 4.00521V5.33854H20V4.00521C20 3.65159 20.1405 3.31245 20.3905 3.0624C20.6406 2.81235 20.9797 2.67188 21.3333 2.67188ZM25.3333 13.3385H6.66667V24.8385C6.66667 25.7785 7.18133 26.5532 7.844 26.6599L8 26.6719H24C24.684 26.6719 25.248 25.9652 25.324 25.0519L25.3333 24.8385V13.3385ZM13.3333 18.6719C13.687 18.6719 14.0261 18.8123 14.2761 19.0624C14.5262 19.3124 14.6667 19.6516 14.6667 20.0052V22.6719C14.6667 23.0255 14.5262 23.3646 14.2761 23.6147C14.0261 23.8647 13.687 24.0052 13.3333 24.0052H10.6667C10.313 24.0052 9.97391 23.8647 9.72386 23.6147C9.47381 23.3646 9.33333 23.0255 9.33333 22.6719V20.0052C9.33333 19.6516 9.47381 19.3124 9.72386 19.0624C9.97391 18.8123 10.313 18.6719 10.6667 18.6719H13.3333Z" fill="#238EEB"/>
</svg>
