<svg width="24" height="24" viewBox="0 0 24 24" fill="none" xmlns="http://www.w3.org/2000/svg">
    <path d="M16 2V6" stroke="currentColor" stroke-linecap="round" stroke-linejoin="round"/>
    <path d="M21 11.75V6C21 4.89543 20.1046 4 19 4H5C3.89543 4 3 4.89543 3 6V20C3 21.1046 3.89543 22 5 22H10.5" stroke="currentColor" stroke-linecap="round" stroke-linejoin="round"/>
    <path d="M8 2V6" stroke="currentColor" stroke-linecap="round" stroke-linejoin="round"/>
    <path d="M3 10H21" stroke="currentColor" stroke-linecap="round" stroke-linejoin="round"/>
    <path d="M22 22L20.125 20.125" stroke="currentColor" stroke-linecap="round" stroke-linejoin="round"/>
    <path d="M21 18C21 19.6569 19.6569 21 18 21C16.3431 21 15 19.6569 15 18C15 16.3431 16.3431 15 18 15C19.6569 15 21 16.3431 21 18Z" stroke="currentColor" stroke-linecap="round" stroke-linejoin="round"/>
</svg>
