<svg width="32" height="32" viewBox="0 0 32 32" fill="none" xmlns="http://www.w3.org/2000/svg">
<path d="M5.34375 9.33854C5.34375 8.6313 5.6247 7.95302 6.1248 7.45292C6.6249 6.95283 7.30317 6.67188 8.01042 6.67188H24.0104C24.7177 6.67188 25.3959 6.95283 25.896 7.45292C26.3961 7.95302 26.6771 8.6313 26.6771 9.33854C26.6771 12.7334 26.6771 14.5 26.6771 14.5H5.34375C5.34375 14.5 5.34375 12.5003 5.34375 9.33854Z" fill="#E8E7F2"/>
<path d="M10.6641 20H13.3307V22.6667H10.6641V20Z" fill="#E8E7F2"/>
<path d="M5.33594 9.33854C5.33594 8.6313 5.61689 7.95302 6.11699 7.45292C6.61708 6.95283 7.29536 6.67188 8.0026 6.67188H24.0026C24.7098 6.67188 25.3881 6.95283 25.8882 7.45292C26.3883 7.95302 26.6693 8.6313 26.6693 9.33854V25.3385C26.6693 26.0458 26.3883 26.7241 25.8882 27.2242C25.3881 27.7243 24.7098 28.0052 24.0026 28.0052H8.0026C7.29536 28.0052 6.61708 27.7243 6.11699 27.2242C5.61689 26.7241 5.33594 26.0458 5.33594 25.3385V9.33854Z" stroke="#C7C6D9" stroke-width="2" stroke-linecap="round" stroke-linejoin="round"/>
<path d="M21.3359 4V9.33333" stroke="#C7C6D9" stroke-width="2" stroke-linecap="round" stroke-linejoin="round"/>
<path d="M10.6641 4V9.33333" stroke="#C7C6D9" stroke-width="2" stroke-linecap="round" stroke-linejoin="round"/>
<path d="M5.33594 14.6719H26.6693" stroke="#C7C6D9" stroke-width="2" stroke-linecap="round" stroke-linejoin="round"/>
<path d="M10.6641 20H13.3307V22.6667H10.6641V20Z" stroke="#C7C6D9" stroke-width="2" stroke-linecap="round" stroke-linejoin="round"/>
</svg>
