<svg
    width="18"
    height="18"
    viewBox="0 0 18 18"
    fill="none"
    stroke="currentColor"
    stroke-width="1.5"
    stroke-linecap="round"
    stroke-linejoin="round"
    xmlns="http://www.w3.org/2000/svg">
    <path d="M9 16.5C13.1421 16.5 16.5 13.1421 16.5 9C16.5 4.85786 13.1421 1.5 9 1.5C4.85786 1.5 1.5 4.85786 1.5 9C1.5 13.1421 4.85786 16.5 9 16.5Z" />
    <path d="M9 9.75C10.2426 9.75 11.25 8.74264 11.25 7.5C11.25 6.25736 10.2426 5.25 9 5.25C7.75736 5.25 6.75 6.25736 6.75 7.5C6.75 8.74264 7.75736 9.75 9 9.75Z" />
    <path d="M5.25 15.4965V14.25C5.25 13.8522 5.40804 13.4706 5.68934 13.1893C5.97064 12.908 6.35218 12.75 6.75 12.75H11.25C11.6478 12.75 12.0294 12.908 12.3107 13.1893C12.592 13.4706 12.75 13.8522 12.75 14.25V15.4965" />
</svg>
