<svg width="18" height="18" viewBox="0 0 18 18" fill="none" xmlns="http://www.w3.org/2000/svg">
    <path d="M9 4.5V9L11.733 10.3665" stroke="currentColor" stroke-linecap="round" stroke-linejoin="round"/>
    <path d="M12 14.25H16.5" stroke="currentColor" stroke-linecap="round" stroke-linejoin="round"/>
    <path d="M14.25 12V16.5" stroke="currentColor" stroke-linecap="round" stroke-linejoin="round"/>
    <path d="M16.4396 9.94987C16.6378 8.39789 16.3456 6.82281 15.604 5.44515C14.8624 4.06749 13.7086 2.95623 12.304 2.26699C10.8994 1.57774 9.31448 1.34501 7.77106 1.60138C6.22763 1.85775 4.80303 2.59039 3.69671 3.69671C2.59039 4.80303 1.85775 6.22763 1.60138 7.77106C1.34501 9.31448 1.57774 10.8994 2.26699 12.304C2.95623 13.7086 4.06749 14.8624 5.44515 15.604C6.82281 16.3456 8.39789 16.6378 9.94987 16.4396" stroke="currentColor" stroke-linecap="round" stroke-linejoin="round"/>
</svg>
