<svg
    width="18"
    height="18"
    viewBox="0 0 18 18"
    fill="none"
    stroke="currentColor"
    stroke-width="1.5"
    stroke-linecap="round"
    stroke-linejoin="round"
    xmlns="http://www.w3.org/2000/svg">
    <path d="M7.49996 3.75C7.12727 3.75002 6.76793 3.88878 6.49196 4.13925L1.74596 8.44425C1.6685 8.51455 1.6066 8.60028 1.56424 8.69592C1.52188 8.79157 1.5 8.89502 1.5 8.99963C1.5 9.10423 1.52188 9.20768 1.56424 9.30333C1.6066 9.39897 1.6685 9.4847 1.74596 9.555L6.49196 13.8608C6.76793 14.1112 7.12727 14.25 7.49996 14.25H15C15.3978 14.25 15.7793 14.092 16.0606 13.8107C16.3419 13.5294 16.5 13.1478 16.5 12.75V5.25C16.5 4.85218 16.3419 4.47064 16.0606 4.18934C15.7793 3.90804 15.3978 3.75 15 3.75H7.49996Z" />
    <path d="M9 6.75L13.5 11.25" />
    <path d="M13.5 6.75L9 11.25" />
</svg>
