<svg width="18" height="18" viewBox="0 0 18 18" fill="none" xmlns="http://www.w3.org/2000/svg">
    <path d="M8.325 16.5H4.5C4.10218 16.5 3.72064 16.342 3.43934 16.0607C3.15804 15.7794 3 15.3978 3 15V3.00001C3 2.60218 3.15804 2.22065 3.43934 1.93935C3.72064 1.65804 4.10218 1.50001 4.5 1.50001H10.5C10.7377 1.49942 10.9731 1.54591 11.1927 1.63679C11.4123 1.72767 11.6117 1.86115 11.7795 2.02951L14.4713 4.72051C14.6395 4.88832 14.7728 5.08778 14.8636 5.30739C14.9543 5.52699 15.0007 5.76239 15 6.00001V8.43751" stroke="currentColor" stroke-linecap="round" stroke-linejoin="round"/>
    <path d="M10.5 1.5V5.25C10.5 5.44891 10.579 5.63968 10.7197 5.78033C10.8603 5.92098 11.0511 6 11.25 6H15" stroke="currentColor" stroke-linecap="round" stroke-linejoin="round"/>
    <path d="M15.7537 16.4998L13.5938 14.3398" stroke="currentColor" stroke-linecap="round" stroke-linejoin="round"/>
    <path d="M12 15C13.2426 15 14.25 13.9926 14.25 12.75C14.25 11.5074 13.2426 10.5 12 10.5C10.7574 10.5 9.75 11.5074 9.75 12.75C9.75 13.9926 10.7574 15 12 15Z" stroke="currentColor" stroke-linecap="round" stroke-linejoin="round"/>
</svg>
