<svg width="18" height="18" viewBox="0 0 18 18" fill="none" xmlns="http://www.w3.org/2000/svg">
    <path d="M8.5125 16.5H4.5C4.10218 16.5 3.72064 16.342 3.43934 16.0607C3.15804 15.7794 3 15.3978 3 15V3.00001C3 2.60218 3.15804 2.22065 3.43934 1.93935C3.72064 1.65804 4.10218 1.50001 4.5 1.50001H10.5C10.7377 1.49942 10.9731 1.54591 11.1927 1.63679C11.4123 1.72767 11.6117 1.86115 11.7795 2.02951L14.4705 4.72051C14.6389 4.88826 14.7723 5.08769 14.8632 5.3073C14.9541 5.52691 15.0006 5.76234 15 6.00001V10.0125" stroke="currentColor" stroke-linecap="round" stroke-linejoin="round"/>
    <path d="M10.5 1.5V5.25C10.5 5.44891 10.579 5.63968 10.7197 5.78033C10.8603 5.92098 11.0511 6 11.25 6H15" stroke="currentColor" stroke-linecap="round" stroke-linejoin="round"/>
    <path d="M10.5 14.25H15" stroke="currentColor" stroke-linecap="round" stroke-linejoin="round"/>
    <path d="M12.75 12V16.5" stroke="currentColor" stroke-linecap="round" stroke-linejoin="round"/>
</svg>
