<svg width="18" height="18" viewBox="0 0 18 18" fill="none" xmlns="http://www.w3.org/2000/svg">
    <path d="M10.7031 1.05078V4.58411C10.7031 4.81839 10.7962 5.04307 10.9618 5.20873C11.1275 5.37438 11.3522 5.46745 11.5865 5.46745H15.1198" stroke="currentColor" stroke-linecap="round" stroke-linejoin="round"/>
    <path d="M2.75 9.00078V2.81745C2.75 2.3489 2.93613 1.89954 3.26744 1.56823C3.59876 1.23691 4.04812 1.05078 4.51667 1.05078H10.7L15.1167 5.46745V9.00078" stroke="currentColor" stroke-linecap="round" stroke-linejoin="round"/>
    <path d="M8.04688 14.3004H9.37188C9.72329 14.3004 10.0603 14.1608 10.3088 13.9123C10.5573 13.6638 10.6969 13.3268 10.6969 12.9754C10.6969 12.624 10.5573 12.287 10.3088 12.0385C10.0603 11.79 9.72329 11.6504 9.37188 11.6504H8.04688V16.9504" stroke="currentColor" stroke-linecap="round" stroke-linejoin="round"/>
    <path d="M16.0016 11.6504H15.1182C14.6497 11.6504 14.2003 11.8365 13.869 12.1678C13.5377 12.4991 13.3516 12.9485 13.3516 13.4171V15.1837C13.3516 15.6523 13.5377 16.1016 13.869 16.4329C14.2003 16.7643 14.6497 16.9504 15.1182 16.9504H16.0016V14.3004" stroke="currentColor" stroke-linecap="round" stroke-linejoin="round"/>
    <path d="M2.75 11.6504H5.4V15.6254C5.4 15.9768 5.2604 16.3138 5.01192 16.5623C4.76343 16.8108 4.42641 16.9504 4.075 16.9504C3.72359 16.9504 3.38657 16.8108 3.13808 16.5623C2.8896 16.3138 2.75 15.9768 2.75 15.6254" stroke="currentColor" stroke-linecap="round" stroke-linejoin="round"/>
</svg>
