<svg width="18" height="18" viewBox="0 0 18 18" fill="none" xmlns="http://www.w3.org/2000/svg">
    <g clip-path="url(#clip0_7209_166184)">
        <path d="M10.7344 1.04883V4.58283C10.7344 4.81715 10.8275 5.04187 10.9931 5.20756C11.1588 5.37325 11.3836 5.46633 11.6179 5.46633H15.1519" stroke="currentColor" stroke-linecap="round" stroke-linejoin="round"/>
        <path d="M2.78125 9.00033V2.81583C2.78125 2.34719 2.96742 1.89775 3.29879 1.56637C3.63017 1.23499 4.07961 1.04883 4.54825 1.04883H10.7328L15.1503 5.46633V9.00033" stroke="currentColor" stroke-linecap="round" stroke-linejoin="round"/>
        <path d="M0.703125 11.6504V16.9514H1.58663C2.05526 16.9514 2.50471 16.7652 2.83608 16.4338C3.16746 16.1025 3.35363 15.653 3.35363 15.1844V13.4174C3.35363 12.9488 3.16746 12.4993 2.83608 12.1679C2.50471 11.8366 2.05526 11.6504 1.58663 11.6504H0.703125Z" stroke="currentColor" stroke-linecap="round" stroke-linejoin="round"/>
        <path d="M12.6505 12.9756C12.6505 12.6242 12.5109 12.2871 12.2623 12.0385C12.0138 11.79 11.6767 11.6504 11.3253 11.6504C10.9738 11.6504 10.6367 11.79 10.3882 12.0385C10.1396 12.2871 10 12.6242 10 12.9756V15.6261C10 15.9776 10.1396 16.3147 10.3882 16.5632C10.6367 16.8118 10.9738 16.9514 11.3253 16.9514C11.6767 16.9514 12.0138 16.8118 12.2623 16.5632C12.5109 16.3147 12.6505 15.9776 12.6505 15.6261" stroke="currentColor" stroke-linecap="round" stroke-linejoin="round"/>
        <path d="M6.67681 11.6504C7.02829 11.6504 7.36537 11.79 7.61391 12.0385C7.86244 12.2871 8.00206 12.6242 8.00206 12.9756V15.6261C8.00206 15.9776 7.86244 16.3147 7.61391 16.5632C7.36537 16.8118 7.02829 16.9514 6.67681 16.9514C6.32533 16.9514 5.98825 16.8118 5.73972 16.5632C5.49119 16.3147 5.35156 15.9776 5.35156 15.6261V12.9756C5.35156 12.6242 5.49119 12.2871 5.73972 12.0385C5.98825 11.79 6.32533 11.6504 6.67681 11.6504Z" stroke="currentColor" stroke-linecap="round" stroke-linejoin="round"/>
        <path d="M14.6484 11.6504L17.2989 16.9514" stroke="currentColor" stroke-linecap="round" stroke-linejoin="round"/>
        <path d="M14.6484 16.9514L17.2989 11.6504" stroke="currentColor" stroke-linecap="round" stroke-linejoin="round"/>
    </g>
    <defs>
        <clipPath id="clip0_7209_166184">
            <rect width="18" height="18" fill="white"/>
        </clipPath>
    </defs>
</svg>
