<svg width="18" height="18" viewBox="0 0 18 18" fill="none" xmlns="http://www.w3.org/2000/svg">
    <path d="M10.7656 1.04883V4.58283C10.7656 4.81715 10.8587 5.04187 11.0244 5.20756C11.1901 5.37325 11.4148 5.46633 11.6491 5.46633H15.1831" stroke="currentColor" stroke-linecap="round" stroke-linejoin="round"/>
    <path d="M2.8125 9.00033V2.81583C2.8125 2.34719 2.99867 1.89775 3.33004 1.56637C3.66142 1.23499 4.11086 1.04883 4.5795 1.04883H10.764L15.1815 5.46633V9.00033" stroke="currentColor" stroke-linecap="round" stroke-linejoin="round"/>
    <path d="M12.5312 14.3009H13.8565C14.208 14.3009 14.5451 14.1613 14.7936 13.9127C15.0421 13.6642 15.1818 13.3271 15.1818 12.9756C15.1818 12.6242 15.0421 12.2871 14.7936 12.0385C14.5451 11.79 14.208 11.6504 13.8565 11.6504H12.5312V16.9514" stroke="currentColor" stroke-linecap="round" stroke-linejoin="round"/>
    <path d="M9 11.6504V16.9514" stroke="currentColor" stroke-linecap="round" stroke-linejoin="round"/>
    <path d="M2.8125 11.6504H5.463L2.8125 16.9514H5.463" stroke="currentColor" stroke-linecap="round" stroke-linejoin="round"/>
</svg>
