<svg width="18" height="18" viewBox="0 0 18 18" fill="none" xmlns="http://www.w3.org/2000/svg">
    <path d="M10.7031 1.05078V4.58411C10.7031 4.81839 10.7962 5.04307 10.9618 5.20873C11.1275 5.37438 11.3522 5.46745 11.5865 5.46745H15.1198" stroke="currentColor" stroke-linecap="round" stroke-linejoin="round"/>
    <path d="M2.75 9.00078V2.81745C2.75 2.3489 2.93613 1.89954 3.26744 1.56823C3.59876 1.23691 4.04812 1.05078 4.51667 1.05078H10.7L15.1167 5.46745V9.00078" stroke="currentColor" stroke-linecap="round" stroke-linejoin="round"/>
    <path d="M2.75 11.6504V16.9504H3.63333C4.10188 16.9504 4.55124 16.7643 4.88256 16.4329C5.21387 16.1016 5.4 15.6523 5.4 15.1837V13.4171C5.4 12.9485 5.21387 12.4991 4.88256 12.1678C4.55124 11.8365 4.10188 11.6504 3.63333 11.6504H2.75Z" stroke="currentColor" stroke-linecap="round" stroke-linejoin="round"/>
    <path d="M16.0016 12.9754C16.0016 12.624 15.862 12.287 15.6135 12.0385C15.365 11.79 15.028 11.6504 14.6766 11.6504C14.3252 11.6504 13.9881 11.79 13.7396 12.0385C13.4912 12.287 13.3516 12.624 13.3516 12.9754V15.6254C13.3516 15.9768 13.4912 16.3138 13.7396 16.5623C13.9881 16.8108 14.3252 16.9504 14.6766 16.9504C15.028 16.9504 15.365 16.8108 15.6135 16.5623C15.862 16.3138 16.0016 15.9768 16.0016 15.6254" stroke="currentColor" stroke-linecap="round" stroke-linejoin="round"/>
    <path d="M9.37188 11.6504C9.72329 11.6504 10.0603 11.79 10.3088 12.0385C10.5573 12.287 10.6969 12.624 10.6969 12.9754V15.6254C10.6969 15.9768 10.5573 16.3138 10.3088 16.5623C10.0603 16.8108 9.72329 16.9504 9.37188 16.9504C9.02046 16.9504 8.68344 16.8108 8.43496 16.5623C8.18647 16.3138 8.04688 15.9768 8.04688 15.6254V12.9754C8.04688 12.624 8.18647 12.287 8.43496 12.0385C8.68344 11.79 9.02046 11.6504 9.37188 11.6504Z" stroke="currentColor" stroke-linecap="round" stroke-linejoin="round"/>
</svg>
