<svg width="32" height="32" viewBox="0 0 32 32" fill="none" xmlns="http://www.w3.org/2000/svg">
    <path d="M16.9424 3.06226L28.9424 15.0623C29.7824 15.9023 29.1877 17.3383 27.9997 17.3383H26.6664V25.3383C26.6664 26.3991 26.245 27.4165 25.4948 28.1667C24.7447 28.9168 23.7273 29.3383 22.6664 29.3383H21.3331V20.0049C21.3331 18.9846 20.9433 18.0029 20.2433 17.2606C19.5434 16.5182 18.5862 16.0714 17.5677 16.0116L17.3331 16.0049H14.6664C13.6055 16.0049 12.5881 16.4264 11.838 17.1765C11.0878 17.9266 10.6664 18.9441 10.6664 20.0049V29.3383H9.33306C8.27219 29.3383 7.25478 28.9168 6.50463 28.1667C5.75449 27.4165 5.33306 26.3991 5.33306 25.3383V17.3383H3.99973C2.81306 17.3383 2.21706 15.9023 3.05706 15.0623L15.0571 3.06226C15.3071 2.8123 15.6462 2.67188 15.9997 2.67188C16.3533 2.67188 16.6924 2.8123 16.9424 3.06226ZM17.3331 18.6716C17.6867 18.6716 18.0258 18.8121 18.2759 19.0621C18.5259 19.3122 18.6664 19.6513 18.6664 20.0049V29.3383H13.3331V20.0049C13.3331 19.6783 13.453 19.3631 13.67 19.1191C13.887 18.875 14.1861 18.7191 14.5104 18.6809L14.6664 18.6716H17.3331Z" fill="#238EEB"/>
</svg>
