<svg width="32" height="32" viewBox="0 0 32 32" fill="none" xmlns="http://www.w3.org/2000/svg">
<path d="M12 27.9948V19.9948C12 19.2875 12.281 18.6093 12.781 18.1092C13.2811 17.6091 13.9594 17.3281 14.6667 17.3281H17.3333C18.0406 17.3281 18.7189 17.6091 19.219 18.1092C19.719 18.6093 20 19.2875 20 19.9948V27.9948" fill="#E8E7F2"/>
<path d="M6.66667 16H4L16 4L28 16H25.3333" stroke="#C7C6D9" stroke-width="2" stroke-linecap="round" stroke-linejoin="round"/>
<path d="M6.66406 16V25.3333C6.66406 26.0406 6.94501 26.7189 7.44511 27.219C7.94521 27.719 8.62349 28 9.33073 28H22.6641C23.3713 28 24.0496 27.719 24.5497 27.219C25.0498 26.7189 25.3307 26.0406 25.3307 25.3333V16" stroke="#C7C6D9" stroke-width="2" stroke-linecap="round" stroke-linejoin="round"/>
<path d="M12 27.9948V19.9948C12 19.2875 12.281 18.6093 12.781 18.1092C13.2811 17.6091 13.9594 17.3281 14.6667 17.3281H17.3333C18.0406 17.3281 18.7189 17.6091 19.219 18.1092C19.719 18.6093 20 19.2875 20 19.9948V27.9948" stroke="#C7C6D9" stroke-width="2" stroke-linecap="round" stroke-linejoin="round"/>
</svg>
