<svg width="24" height="24" viewBox="0 0 24 24" fill="none" xmlns="http://www.w3.org/2000/svg">
    <path d="M3.87868 19.1213C3.31607 18.5587 3 17.7956 3 17C3 16.2044 3.31607 15.4413 3.87868 14.8787C4.44129 14.3161 5.20435 14 6 14C6.79565 14 7.55871 14.3161 8.12132 14.8787C8.68393 15.4413 9 16.2044 9 17C9 17.7956 8.68393 18.5587 8.12132 19.1213C7.55871 19.6839 6.79565 20 6 20C5.20435 20 4.44129 19.6839 3.87868 19.1213Z" stroke="currentColor" stroke-linecap="round" stroke-linejoin="round"/>
    <path d="M13 17C13 17.7956 13.3161 18.5587 13.8787 19.1213C14.4413 19.6839 15.2044 20 16 20C16.7956 20 17.5587 19.6839 18.1213 19.1213C18.6839 18.5587 19 17.7956 19 17C19 16.2044 18.6839 15.4413 18.1213 14.8787C17.5587 14.3161 16.7956 14 16 14C15.2044 14 14.4413 14.3161 13.8787 14.8787C13.3161 15.4413 13 16.2044 13 17Z" stroke="currentColor" stroke-linecap="round" stroke-linejoin="round"/>
    <path d="M9 17V4H19V17" stroke="currentColor" stroke-linecap="round" stroke-linejoin="round"/>
    <path d="M9 8H19" stroke="currentColor" stroke-linecap="round" stroke-linejoin="round"/>
</svg>
