<svg width="18" height="18" viewBox="0 0 18 18" fill="none" xmlns="http://www.w3.org/2000/svg">
    <path d="M2.61856 8.62637L8.61856 2.62637C9.31475 1.93018 10.259 1.53906 11.2436 1.53906C12.2281 1.53906 13.1724 1.93018 13.8686 2.62637C14.5648 3.32257 14.9559 4.26681 14.9559 5.25137C14.9559 6.23594 14.5648 7.18018 13.8686 7.87637L7.86856 13.8764C7.17237 14.5726 6.22813 14.9637 5.24356 14.9637C4.25899 14.9637 3.31475 14.5726 2.61856 13.8764C1.92237 13.1802 1.53125 12.2359 1.53125 11.2514C1.53125 10.2668 1.92237 9.32257 2.61856 8.62637Z" stroke="currentColor" stroke-linecap="round" stroke-linejoin="round"/>
    <path d="M5.61719 5.62305L10.8672 10.873" stroke="currentColor" stroke-linecap="round" stroke-linejoin="round"/>
    <path d="M12 14.252H16.5" stroke="currentColor" stroke-linecap="round" stroke-linejoin="round"/>
    <path d="M14.25 12.002V16.502" stroke="currentColor" stroke-linecap="round" stroke-linejoin="round"/>
</svg>
