<svg width="32" height="32" viewBox="0 0 32 32" fill="none" xmlns="http://www.w3.org/2000/svg">
    <path d="M26.9409 5.05761C28.4284 6.54537 29.2641 8.56308 29.2641 10.6669C29.2641 12.7708 28.4284 14.7885 26.9409 16.2763L16.2742 26.9429C14.7806 28.4021 12.772 29.2136 10.684 29.2015C8.596 29.1893 6.59697 28.3545 5.12049 26.878C3.64402 25.4015 2.80917 23.4025 2.79701 21.3145C2.78485 19.2265 3.59637 17.2178 5.05554 15.7243L15.7222 5.05761C17.21 3.57006 19.2277 2.73438 21.3315 2.73438C23.4354 2.73438 25.4531 3.57006 26.9409 5.05761ZM17.6075 6.94295L11.8822 12.6669L19.3302 20.1149L25.0555 14.3923C25.5504 13.9045 25.9438 13.3237 26.2131 12.6832C26.4824 12.0427 26.6224 11.3553 26.6249 10.6605C26.6274 9.96566 26.4924 9.27723 26.2276 8.63484C25.9629 7.99245 25.5736 7.40879 25.0823 6.91749C24.591 6.42618 24.0074 6.03695 23.365 5.77221C22.7226 5.50747 22.0342 5.37246 21.3394 5.37495C20.6446 5.37744 19.9571 5.51738 19.3166 5.78672C18.6762 6.05606 18.0953 6.44947 17.6075 6.94428" fill="#238EEB"/>
</svg>
