<svg width="64" height="64" viewBox="0 0 64 64" fill="none" xmlns="http://www.w3.org/2000/svg">
    <path d="M51.9988 30.6655C54.4742 28.1901 55.8648 24.8328 55.8648 21.3321C55.8648 17.8315 54.4742 14.4742 51.9988 11.9988C49.5234 9.52345 46.1661 8.13281 42.6655 8.13281C39.1648 8.13281 35.8075 9.52345 33.3321 11.9988L11.9988 33.3321C9.52345 35.8075 8.13281 39.1648 8.13281 42.6655C8.13281 46.1661 9.52345 49.5234 11.9988 51.9988C14.4742 54.4742 17.8315 55.8648 21.3321 55.8648C24.8328 55.8648 28.1901 54.4742 30.6655 51.9988" stroke="currentColor" stroke-linecap="round" stroke-linejoin="round"/>
    <path d="M22.6641 22.6641L32.6641 32.6641" stroke="currentColor" stroke-linecap="round" stroke-linejoin="round"/>
    <path d="M55.9925 55.9925L48.3125 48.3125" stroke="currentColor" stroke-linecap="round" stroke-linejoin="round"/>
    <path d="M42.6641 50.6641C47.0823 50.6641 50.6641 47.0823 50.6641 42.6641C50.6641 38.2458 47.0823 34.6641 42.6641 34.6641C38.2458 34.6641 34.6641 38.2458 34.6641 42.6641C34.6641 47.0823 38.2458 50.6641 42.6641 50.6641Z" stroke="currentColor" stroke-linecap="round" stroke-linejoin="round"/>
</svg>
