<svg width="32" height="32" viewBox="0 0 32 32" fill="none" xmlns="http://www.w3.org/2000/svg">
    <path d="M6.00331 16.6648L11.34 11.3281L20.67 20.66L15.3366 25.9981C14.099 27.2358 12.4203 27.9311 10.67 27.9311C8.91964 27.9311 7.24099 27.2358 6.00331 25.9981C4.76563 24.7604 4.07031 23.0818 4.07031 21.3315C4.07031 19.5811 4.76563 17.9025 6.00331 16.6648Z" fill="#E8E7F2"/>
    <path d="M6.00331 16.6622L16.67 5.9955C17.9077 4.75782 19.5863 4.0625 21.3366 4.0625C23.087 4.0625 24.7656 4.75782 26.0033 5.9955C27.241 7.23317 27.9363 8.91182 27.9363 10.6622C27.9363 12.4125 27.241 14.0912 26.0033 15.3288L15.3366 25.9955C14.099 27.2332 12.4203 27.9285 10.67 27.9285C8.91964 27.9285 7.24099 27.2332 6.00331 25.9955C4.76563 24.7578 4.07031 23.0792 4.07031 21.3288C4.07031 19.5785 4.76563 17.8998 6.00331 16.6622Z" stroke="#C7C6D9" stroke-width="2" stroke-linecap="round" stroke-linejoin="round"/>
    <path d="M11.3359 11.3281L20.6693 20.6615" stroke="#C7C6D9" stroke-width="2" stroke-linecap="round" stroke-linejoin="round"/>
</svg>
