<svg width="18" height="18" viewBox="0 0 18 18" fill="none" xmlns="http://www.w3.org/2000/svg">
    <path d="M9 2.25H3.75C3.35218 2.25 2.97064 2.40804 2.68934 2.68934C2.40804 2.97064 2.25 3.35218 2.25 3.75V14.25C2.25 14.6478 2.40804 15.0294 2.68934 15.3107C2.97064 15.592 3.35218 15.75 3.75 15.75H14.25C14.6478 15.75 15.0294 15.592 15.3107 15.3107C15.592 15.0294 15.75 14.6478 15.75 14.25V9" stroke="currentColor" stroke-linecap="round" stroke-linejoin="round"/>
    <path d="M13.7842 1.96794C14.0826 1.66957 14.4873 1.50195 14.9092 1.50195C15.3312 1.50195 15.7359 1.66957 16.0342 1.96794C16.3326 2.26631 16.5002 2.67099 16.5002 3.09294C16.5002 3.5149 16.3326 3.91957 16.0342 4.21794L9.2745 10.9784C9.09641 11.1564 8.8764 11.2866 8.63475 11.3572L6.48 11.9872C6.41546 12.006 6.34705 12.0071 6.28193 11.9905C6.21681 11.9738 6.15737 11.9399 6.10983 11.8924C6.0623 11.8448 6.02842 11.7854 6.01173 11.7203C5.99505 11.6551 5.99618 11.5867 6.015 11.5222L6.645 9.36744C6.71589 9.12598 6.8464 8.90624 7.0245 8.72844L13.7842 1.96794Z" stroke="currentColor" stroke-linecap="round" stroke-linejoin="round"/>
</svg>
