<svg width="18" height="18" viewBox="0 0 18 18" fill="none" xmlns="http://www.w3.org/2000/svg">
    <path d="M16.2954 13.5007L10.2954 3.00066C10.1645 2.76981 9.97482 2.5778 9.74557 2.44421C9.51631 2.31062 9.25571 2.24023 8.99037 2.24023C8.72503 2.24023 8.46444 2.31062 8.23518 2.44421C8.00592 2.5778 7.8162 2.76981 7.68537 3.00066L1.68537 13.5007C1.55313 13.7297 1.48379 13.9896 1.48438 14.254C1.48496 14.5185 1.55546 14.7781 1.68871 15.0065C1.82196 15.235 2.01323 15.4241 2.24314 15.5548C2.47305 15.6855 2.73343 15.753 2.99787 15.7507H14.9979C15.261 15.7504 15.5195 15.6809 15.7473 15.5491C15.9751 15.4174 16.1643 15.228 16.2958 15C16.4272 14.772 16.4964 14.5134 16.4963 14.2503C16.4963 13.9871 16.427 13.7286 16.2954 13.5007Z" stroke="currentColor" stroke-linecap="round" stroke-linejoin="round"/>
    <path d="M9 6.75V9.75" stroke="currentColor" stroke-linecap="round" stroke-linejoin="round"/>
    <path d="M9 12.75H9.0075" stroke="currentColor" stroke-linecap="round" stroke-linejoin="round"/>
</svg>

