<svg width="32" height="32" viewBox="0 0 32 32" fill="none" xmlns="http://www.w3.org/2000/svg">
    <path d="M16.0026 2.67188C17.3211 2.67187 18.6101 3.06287 19.7064 3.79541C20.8027 4.52795 21.6572 5.56914 22.1618 6.78732C22.6664 8.00549 22.7984 9.34594 22.5412 10.6391C22.2839 11.9324 21.649 13.1202 20.7166 14.0526C19.7843 14.9849 18.5964 15.6199 17.3032 15.8771C16.01 16.1343 14.6696 16.0023 13.4514 15.4977C12.2332 14.9932 11.192 14.1387 10.4595 13.0423C9.72693 11.946 9.33594 10.6571 9.33594 9.33854L9.3426 9.04921C9.41716 7.33288 10.1514 5.71158 11.3922 4.52342C12.6331 3.33526 14.2847 2.67197 16.0026 2.67188Z" fill="#238EEB"/>
    <path d="M18.6641 18.6719C20.4322 18.6719 22.1279 19.3743 23.3781 20.6245C24.6283 21.8747 25.3307 23.5704 25.3307 25.3385V26.6719C25.3307 27.3791 25.0498 28.0574 24.5497 28.5575C24.0496 29.0576 23.3713 29.3385 22.6641 29.3385H9.33073C8.62349 29.3385 7.94521 29.0576 7.44511 28.5575C6.94501 28.0574 6.66406 27.3791 6.66406 26.6719V25.3385C6.66406 23.5704 7.36644 21.8747 8.61668 20.6245C9.86693 19.3743 11.5626 18.6719 13.3307 18.6719H18.6641Z" fill="#238EEB"/>
</svg>
