<svg width="32" height="32" viewBox="0 0 32 32" fill="none" xmlns="http://www.w3.org/2000/svg">
    <path d="M10.6562 9.33333C10.6563 10.7478 11.2182 12.1044 12.2183 13.1046C13.2185 14.1048 14.5751 14.6667 15.9896 14.6667C17.4041 14.6667 18.7606 14.1048 19.7608 13.1046C20.761 12.1044 21.3229 10.7478 21.3229 9.33333C21.3229 7.91885 20.761 6.56229 19.7608 5.5621C18.7606 4.5619 17.4041 4 15.9896 4C14.5751 4 13.2185 4.5619 12.2183 5.5621C11.2182 6.56229 10.6563 7.91885 10.6562 9.33333Z" fill="#E8E7F2"/>
    <path d="M10.6641 9.33333C10.6641 10.7478 11.226 12.1044 12.2262 13.1046C13.2264 14.1048 14.5829 14.6667 15.9974 14.6667C17.4119 14.6667 18.7684 14.1048 19.7686 13.1046C20.7688 12.1044 21.3307 10.7478 21.3307 9.33333C21.3307 7.91885 20.7688 6.56229 19.7686 5.5621C18.7684 4.5619 17.4119 4 15.9974 4C14.5829 4 13.2264 4.5619 12.2262 5.5621C11.226 6.56229 10.6641 7.91885 10.6641 9.33333Z" stroke="#C7C6D9" stroke-width="2" stroke-linecap="round" stroke-linejoin="round"/>
    <path d="M8 28V25.3333C8 23.9188 8.5619 22.5623 9.5621 21.5621C10.5623 20.5619 11.9188 20 13.3333 20H18.6667C20.0812 20 21.4377 20.5619 22.4379 21.5621C23.4381 22.5623 24 23.9188 24 25.3333V28" stroke="#C7C6D9" stroke-width="2" stroke-linecap="round" stroke-linejoin="round"/>
</svg>
