<svg width="48" height="48" viewBox="0 0 48 48" fill="none" xmlns="http://www.w3.org/2000/svg">
<path d="M3 13.5C3 11.1755 3 10.0133 3.23975 9.05616C3.95699 6.19276 6.19276 3.95699 9.05616 3.23975C10.0133 3 11.1755 3 13.5 3C20.4734 3 23.9601 3 26.8315 3.71925C35.4217 5.87098 42.129 12.5783 44.2808 21.1685C45 24.0399 45 27.5266 45 34.5C45 36.8245 45 37.9867 44.7603 38.9438C44.043 41.8072 41.8072 44.043 38.9438 44.7603C37.9867 45 36.8245 45 34.5 45C27.5266 45 24.0399 45 21.1685 44.2808C12.5783 42.129 5.87098 35.4217 3.71925 26.8315C3 23.9601 3 20.4734 3 13.5Z" fill="url(#paint0_linear_8910_339758)"/>
<defs>
<linearGradient id="paint0_linear_8910_339758" x1="7.75682" y1="7.75682" x2="40.2432" y2="40.2432" gradientUnits="userSpaceOnUse">
<stop stop-color="#4638FF" stop-opacity="0.05"/>
<stop offset="1" stop-color="#4638FF" stop-opacity="0.35"/>
</linearGradient>
</defs>
</svg>
