<svg width="48" height="48" viewBox="0 0 48 48" fill="none" xmlns="http://www.w3.org/2000/svg">
<path d="M34.5 3C36.8245 3 37.9867 3 38.9438 3.23975C41.8072 3.95699 44.043 6.19276 44.7603 9.05616C45 10.0133 45 11.1755 45 13.5C45 20.4734 45 23.9601 44.2808 26.8315C42.129 35.4217 35.4217 42.129 26.8315 44.2808C23.9601 45 20.4734 45 13.5 45C11.1755 45 10.0133 45 9.05616 44.7603C6.19276 44.043 3.95699 41.8072 3.23975 38.9438C3 37.9867 3 36.8245 3 34.5C3 27.5266 3 24.0399 3.71925 21.1685C5.87098 12.5783 12.5783 5.87098 21.1685 3.71925C24.0399 3 27.5266 3 34.5 3Z" fill="url(#paint0_linear_8910_338760)"/>
<defs>
<linearGradient id="paint0_linear_8910_338760" x1="-0.195731" y1="-0.202464" x2="48.206" y2="48.1993" gradientUnits="userSpaceOnUse">
<stop stop-color="#74B700" stop-opacity="0.05"/>
<stop offset="1" stop-color="#74B700" stop-opacity="0.4"/>
</linearGradient>
</defs>
</svg>
