<svg width="48" height="48" viewBox="0 0 48 48" fill="none" xmlns="http://www.w3.org/2000/svg">
<path d="M17.3275 4.75641C20.366 -0.252137 27.634 -0.252134 30.6725 4.75641L34.4283 10.9472C35.0794 12.0204 35.9796 12.9206 37.0528 13.5717L43.2436 17.3275C48.2521 20.366 48.2521 27.634 43.2436 30.6725L37.0528 34.4283C35.9796 35.0794 35.0794 35.9796 34.4283 37.0528L30.6725 43.2436C27.634 48.2521 20.366 48.2521 17.3275 43.2436L13.5717 37.0528C12.9206 35.9796 12.0204 35.0794 10.9472 34.4283L4.75641 30.6725C-0.252137 27.634 -0.252134 20.366 4.75641 17.3275L10.9472 13.5717C12.0204 12.9206 12.9206 12.0204 13.5717 10.9472L17.3275 4.75641Z" fill="url(#paint0_linear_8910_338706)"/>
<defs>
<linearGradient id="paint0_linear_8910_338706" x1="50.5113" y1="50.504" x2="-2.50008" y2="-2.50746" gradientUnits="userSpaceOnUse">
<stop stop-color="#74B700" stop-opacity="0.05"/>
<stop offset="1" stop-color="#74B700" stop-opacity="0.4"/>
</linearGradient>
</defs>
</svg>
