<svg width="48" height="48" viewBox="0 0 48 48" fill="none" xmlns="http://www.w3.org/2000/svg">
<path d="M18.3799 3.39679C21.8908 1.5344 26.1092 1.5344 29.6201 3.39679L34.5 5.98537L39.2031 8.87723C42.5868 10.9578 44.6961 14.5766 44.8232 18.5196L45 24L44.8232 29.4804C44.6961 33.4234 42.5868 37.0422 39.2031 39.1228L34.5 42.0146L29.6201 44.6032C26.1092 46.4656 21.8908 46.4656 18.3799 44.6032L13.5 42.0146L8.79689 39.1228C5.41319 37.0422 3.30394 33.4234 3.17677 29.4804L3 24L3.17677 18.5196C3.30394 14.5766 5.41319 10.9578 8.79689 8.87723L13.5 5.98537L18.3799 3.39679Z" fill="url(#paint0_linear_8910_338335)"/>
<defs>
<linearGradient id="paint0_linear_8910_338335" x1="7.04856" y1="41.7587" x2="42.5275" y2="7.89242" gradientUnits="userSpaceOnUse">
<stop stop-color="#FFCC00" stop-opacity="0.55"/>
<stop offset="1" stop-color="#FFCC00" stop-opacity="0.15"/>
</linearGradient>
</defs>
</svg>
