<svg width="48" height="48" viewBox="0 0 48 48" fill="none" xmlns="http://www.w3.org/2000/svg">
<path d="M20.3083 2.25495C22.4895 0.581683 25.5105 0.581682 27.6916 2.25495L28.6555 2.99438C29.7537 3.83683 31.103 4.27873 32.4827 4.24781L33.6936 4.22068C36.434 4.15927 38.878 5.9491 39.6669 8.59509L40.0155 9.76438C40.4126 11.0966 41.2465 12.2535 42.3808 13.0459L43.3763 13.7414C45.6291 15.3153 46.5626 18.2113 45.6579 20.8194L45.258 21.9719C44.8025 23.285 44.8025 24.715 45.258 26.0281L45.6579 27.1806C46.5626 29.7887 45.6291 32.6847 43.3763 34.2586L42.3808 34.9541C41.2465 35.7465 40.4126 36.9034 40.0155 38.2356L39.6669 39.4049C38.878 42.0509 36.434 43.8407 33.6936 43.7793L32.4827 43.7522C31.103 43.7213 29.7537 44.1632 28.6555 45.0056L27.6917 45.745C25.5105 47.4183 22.4895 47.4183 20.3083 45.7451L19.3445 45.0056C18.2463 44.1632 16.897 43.7213 15.5173 43.7522L14.3064 43.7793C11.566 43.8407 9.12201 42.0509 8.33314 39.4049L7.98453 38.2356C7.58736 36.9034 6.75346 35.7465 5.61923 34.9541L4.62371 34.2586C2.37091 32.6847 1.43739 29.7887 2.34214 27.1806L2.74196 26.0281C3.19748 24.715 3.19748 23.285 2.74196 21.9719L2.34214 20.8194C1.43739 18.2114 2.37091 15.3153 4.62371 13.7414L5.61923 13.0459C6.75346 12.2535 7.58736 11.0966 7.98453 9.76438L8.33314 8.5951C9.12201 5.9491 11.566 4.15926 14.3064 4.22068L15.5173 4.24781C16.897 4.27873 18.2463 3.83683 19.3445 2.99438L20.3083 2.25495Z" fill="url(#paint0_linear_8910_338682)"/>
<defs>
<linearGradient id="paint0_linear_8910_338682" x1="49.3587" y1="50.504" x2="-3.60043" y2="-0.152556" gradientUnits="userSpaceOnUse">
<stop stop-color="#74B700" stop-opacity="0.05"/>
<stop offset="1" stop-color="#74B700" stop-opacity="0.4"/>
</linearGradient>
</defs>
</svg>
